<?xml version="1.0" encoding="utf-8"?>
<!-- Generator: Adobe Illustrator 25.2.2, SVG Export Plug-In . SVG Version: 6.00 Build 0)  -->
<!DOCTYPE svg PUBLIC "-//W3C//DTD SVG 1.1//EN" "http://www.w3.org/Graphics/SVG/1.1/DTD/svg11.dtd" [
	<!ENTITY ns_extend "http://ns.adobe.com/Extensibility/1.0/">
	<!ENTITY ns_ai "http://ns.adobe.com/AdobeIllustrator/10.0/">
	<!ENTITY ns_graphs "http://ns.adobe.com/Graphs/1.0/">
	<!ENTITY ns_vars "http://ns.adobe.com/Variables/1.0/">
	<!ENTITY ns_imrep "http://ns.adobe.com/ImageReplacement/1.0/">
	<!ENTITY ns_sfw "http://ns.adobe.com/SaveForWeb/1.0/">
	<!ENTITY ns_custom "http://ns.adobe.com/GenericCustomNamespace/1.0/">
	<!ENTITY ns_adobe_xpath "http://ns.adobe.com/XPath/1.0/">
]>
<svg version="1.1" id="Ebene_1" xmlns:x="&ns_extend;" xmlns:i="&ns_ai;" xmlns:graph="&ns_graphs;"
	 xmlns="http://www.w3.org/2000/svg" xmlns:xlink="http://www.w3.org/1999/xlink" x="0px" y="0px" viewBox="0 0 283.4 283.4"
	 style="enable-background:new 0 0 283.4 283.4;" xml:space="preserve">
<style type="text/css">
	.st0{fill:#13344B;}
	.st1{fill:#FFFFFF;}
</style>
<metadata>
	<sfw  xmlns="&ns_sfw;">
		<slices></slices>
		<sliceSourceBounds  bottomLeftOrigin="true" height="283.4" width="283.4" x="28.3" y="27.7"></sliceSourceBounds>
	</sfw>
</metadata>
<g>
	<circle class="st0" cx="141.7" cy="141.7" r="141.7"/>
	<path class="st1" d="M45.9,130.1c8.5,0,19-2.8,19-13.2c0-6.6-5.9-9.6-11.8-9.6c-13.4,0-21.3,13-21.3,25.3c0,9.3,6.5,15.1,15.6,15.1
		c4.5,0,9.6-1.3,13.5-3.6l-2-6.5c-2.7,1.7-6,2.9-9.3,2.9c-5.8,0-9.1-3.1-9.1-8.7c0-0.6,0.1-1.4,0.1-2
		C42.3,129.8,44.1,130.1,45.9,130.1z M51.4,113.6c2.5,0,4.6,1.6,4.6,4.1c0,5.1-5.9,6.3-9.9,6.3c-1.6,0-3.1-0.1-4.5-0.3
		C42.7,118.5,46,113.6,51.4,113.6z M73.7,146.3H65l8.1-37.9h8.7L73.7,146.3z M78.9,102.4c-2.4,0-4.2-1.5-4.2-3.7
		c0-3.2,2.8-5.9,6-5.9c2.4,0,4.1,1.5,4.1,3.6C84.8,99.8,82.1,102.4,78.9,102.4z M133,130.1c8.5,0,19-2.8,19-13.2
		c0-6.6-5.9-9.6-11.8-9.6c-13.4,0-21.3,13-21.3,25.3c0,9.3,6.5,15.1,15.6,15.1c4.5,0,9.6-1.3,13.5-3.6l-2-6.5
		c-2.7,1.7-6,2.9-9.3,2.9c-5.8,0-9.1-3.1-9.1-8.7c0-0.6,0.1-1.4,0.1-2C129.4,129.8,131.2,130.1,133,130.1z M138.5,113.6
		c2.5,0,4.6,1.6,4.6,4.1c0,5.1-5.9,6.3-9.9,6.3c-1.6,0-3.1-0.1-4.5-0.3C129.9,118.5,133.1,113.6,138.5,113.6z M189,121.1l-5.4,25.2
		H175l5.1-23.9c0.2-1.1,0.4-2.3,0.4-3.4c0-2.5-1.5-3.9-3.7-3.9c-3.6,0-8,4.1-10.3,7.8c-0.8,1.1-1.2,2.1-1.4,3l-4.4,20.4h-8.6l8-37.9
		h8.1l-1.7,7.8c3.5-4.4,8.6-8.9,14.6-8.9c5.3,0,8.6,3.4,8.6,8.6C189.7,117.7,189.4,119.5,189,121.1z M215.9,116c-2-1.5-5-2.1-7-2.1
		c-4.1,0-5.8,2.1-5.8,4.2c0,2.6,2.8,4.4,4.9,5.9c3.6,2.3,7.7,5.1,7.7,10.6c0,8.4-7.4,13-14.7,13c-3.9,0-8.5-0.7-11.6-2.8l3.1-6.8
		c2.2,1.7,5.2,2.8,8.2,2.8c3.1,0,6.3-1.2,6.3-4.6c0-2.4-1.7-3.9-5.4-6.3c-3.3-2.2-6.9-4.9-6.9-10.1c0-7.4,5.5-12.6,14.3-12.6
		c3.7,0,6.9,0.7,9.9,2.4L215.9,116z M83.7,141c0.6,0.8,1.3,1.4,2.2,1.9c0.5,0.3,1,0.6,1.6,0.7c0.3,0.1,0.6,0.2,0.8,0.3
		c0.3,0.1,2.9,0.8,5.5,1.2c1.4,0.2,6,0.8,6,0.8c2.3,0.3,4.4,1.5,4.4,4.1c0,1.1-0.4,2.1-0.9,2.9l9.4-2c0.1-0.7,0.2-1.5,0.2-2.3
		c0-5.5-4.1-8.4-9.5-9.1l-9.6-1.2c-3-0.4-4.6-1.4-4.6-3.1c0-0.8,0.4-1.4,0.9-2c0.8-1.1,1.6-1.5,2.9-1c1.7,0.6,3.5,0.9,5.4,0.9
		c9.3,0,16.8-5.7,16.8-15.4c0-0.8-0.1-1.6-0.3-2.3h4.9l1.4-6.4h-10.6c-2.4-1.4-5-1.9-7.8-1.9c-9,0-16.4,5.9-16.4,15.5
		c0,2.4,0.7,4.6,1.9,6.2c-3.1,1.5-5.9,4.4-5.9,7.9c0,0.4,0,0.7,0.1,1.1C82.5,138.9,82.9,140,83.7,141z M101.9,112.8
		c3.3,0,4.9,2,4.9,5.2c0,4.7-2.1,9.4-7.5,9.4c-3.3,0-5-2.1-5-5.2C94.4,117.5,96.7,112.8,101.9,112.8z"/>
	<g>
		<path class="st1" d="M108.2,173.9l-0.4-2.9h-5.3l-1.5,2.9h-2.6l7.7-13.8h2.9l1.8,13.8H108.2z M107.1,164.9
			c-0.1-0.5-0.2-1.9-0.2-2.3l0,0c-0.2,0.5-0.8,1.7-1.1,2.3l-2.2,4.1h4L107.1,164.9z"/>
		<path class="st1" d="M116.7,174.2c-0.8,0-1.7-0.1-2.1-0.8l-0.9,4.4h-2.4l3-14.3h2.2l-0.5,2.1c0.9-1.1,2.1-2.4,3.7-2.4
			c2,0,2.7,1.9,2.7,3.6C122.4,170.2,120.4,174.2,116.7,174.2z M118.7,165.4c-1,0-2.2,1.3-2.7,2.1c-0.2,0.3-0.3,0.5-0.4,0.8l-0.6,2.6
			c-0.2,1.1,0.6,1.6,1.6,1.6c2.5,0,3.3-3.2,3.3-5.1C119.9,166.1,119.5,165.4,118.7,165.4z"/>
		<path class="st1" d="M127.3,174.3c-2.4,0-3.9-1.5-3.9-4c0-3.4,2.2-7.1,5.9-7.1c2.4,0,3.9,1.5,3.9,4
			C133.2,170.5,131,174.3,127.3,174.3z M129,165.1c-2.2,0-3.1,3.1-3.1,4.9c0,1.2,0.4,2.3,1.8,2.3c2.2,0,3.1-3.1,3.1-4.9
			C130.7,166.2,130.3,165.1,129,165.1z"/>
		<path class="st1" d="M140.8,165.5h-2.5l-1.1,5.3c-0.1,0.2-0.1,0.4-0.1,0.6c0,0.7,0.5,1,1.2,1c0.4,0,0.8-0.1,1.1-0.2l-0.1,1.8
			c-0.6,0.2-1.3,0.3-2,0.3c-1.4,0-2.6-0.6-2.6-2.1c0-0.3,0.1-0.7,0.1-1l1.2-5.6h-1.8l0.4-1.7h1.8l0.4-2.2l2.5-0.8l-0.6,3h2.5
			L140.8,165.5z"/>
		<path class="st1" d="M150.8,167l-1.5,6.9h-2.4l1.4-6.5c0.1-0.3,0.1-0.6,0.1-0.9c0-0.7-0.4-1.1-1-1.1c-1,0-2.2,1.1-2.8,2.1
			c-0.2,0.3-0.3,0.6-0.4,0.8l-1.2,5.6h-2.3l3.1-14.4h2.4l-1.3,5.9c0.8-0.9,2.1-2.1,3.8-2.1c1.4,0,2.3,0.9,2.3,2.4
			C151,166.1,150.9,166.6,150.8,167z"/>
		<path class="st1" d="M156,169.4c-0.5,0-1-0.1-1.4-0.1c0,0.2,0,0.4,0,0.5c0,1.5,0.9,2.4,2.5,2.4c0.9,0,1.8-0.3,2.5-0.8l0.5,1.8
			c-1.1,0.6-2.5,1-3.7,1c-2.5,0-4.3-1.6-4.3-4.1c0-3.4,2.1-6.9,5.8-6.9c1.6,0,3.2,0.8,3.2,2.6C161.2,168.7,158.4,169.4,156,169.4z
			 M157.5,165c-1.5,0-2.4,1.3-2.7,2.8c0.4,0.1,0.8,0.1,1.2,0.1c1.1,0,2.7-0.3,2.7-1.7C158.8,165.4,158.2,165,157.5,165z"/>
		<path class="st1" d="M168.1,167.6l2.2,6.3h-2.7l-1.5-4.8l-1.2,1.1l-0.8,3.7h-2.4l3.1-14.4h2.4l-1.8,8.3l4-4.3h2.9L168.1,167.6z"/>
		<path class="st1" d="M175.5,169.4c-0.5,0-1-0.1-1.4-0.1c0,0.2,0,0.4,0,0.5c0,1.5,0.9,2.4,2.5,2.4c0.9,0,1.8-0.3,2.5-0.8l0.5,1.8
			c-1.1,0.6-2.5,1-3.7,1c-2.5,0-4.3-1.6-4.3-4.1c0-3.4,2.1-6.9,5.8-6.9c1.6,0,3.2,0.8,3.2,2.6C180.7,168.7,177.8,169.4,175.5,169.4z
			 M177,165c-1.5,0-2.4,1.3-2.7,2.8c0.4,0.1,0.8,0.1,1.2,0.1c1.1,0,2.7-0.3,2.7-1.7C178.2,165.4,177.7,165,177,165z"/>
		<path class="st1" d="M191.3,167l-1.5,6.9h-2.4l1.4-6.5c0.1-0.3,0.1-0.6,0.1-0.9c0-0.7-0.4-1.1-1-1.1c-1,0-2.2,1.1-2.8,2.1
			c-0.2,0.3-0.3,0.6-0.4,0.8l-1.2,5.6h-2.4l2.2-10.4h2.2l-0.5,2.1c1-1.2,2.4-2.4,4-2.4c1.4,0,2.3,0.9,2.3,2.4
			C191.5,166.1,191.4,166.6,191.3,167z"/>
		<path class="st1" d="M202.4,165.5h-1.3c0.1,0.2,0.1,0.4,0.1,0.6c0,2.7-2.1,4.2-4.6,4.2c-0.5,0-1-0.1-1.5-0.3
			c-0.4-0.1-0.6,0-0.8,0.3c-0.1,0.2-0.2,0.3-0.2,0.5c0,0.5,0.4,0.7,1.2,0.8l2.6,0.3c1.5,0.2,2.6,1,2.6,2.5c0,2.6-2.8,3.6-5.2,3.6
			c-1.9,0-4.3-0.7-4.3-2.8c0-1.2,0.9-2,2-2.5l0,0c-0.4-0.3-0.8-0.9-0.8-1.5c0-1,0.8-1.8,1.6-2.2c-0.3-0.4-0.5-1-0.5-1.7
			c0-2.6,2-4.2,4.5-4.2c0.8,0,1.5,0.1,2.1,0.5h2.9L202.4,165.5z M197,173.8l-2-0.3c-0.1,0-0.3,0-0.4,0c-0.8,0-1.5,0.6-1.5,1.4
			c0,1.2,1.4,1.6,2.5,1.6c1.2,0,2.6-0.4,2.6-1.6C198.2,174.2,197.6,173.9,197,173.8z M197.6,164.8c-1.4,0-2.1,1.3-2.1,2.6
			c0,0.9,0.5,1.4,1.4,1.4c1.5,0,2-1.3,2-2.6C199,165.3,198.5,164.8,197.6,164.8z"/>
		<path class="st1" d="M208.7,165.9c-0.2-0.1-0.4-0.2-0.6-0.2c-0.8,0-1.6,0.8-2.2,1.7c-0.2,0.3-0.3,0.6-0.4,0.9l-1.2,5.6h-2.4
			l1.6-7.4c0.2-1,0.4-2,0.5-2.9h2.1l-0.5,2.3c0.7-1.1,1.8-2.6,3.1-2.6c0.3,0,0.6,0.1,0.8,0.2L208.7,165.9z"/>
		<path class="st1" d="M217.5,173.9h-2.2l0.4-2.1c-0.9,1.2-2.2,2.4-3.8,2.4c-1.4,0-2.3-0.9-2.3-2.4c0-0.5,0.1-0.9,0.2-1.4l1.5-6.9
			h2.4l-1.4,6.5c-0.1,0.3-0.1,0.6-0.1,0.9c0,0.7,0.4,1.1,1,1.1c0.9,0,2-1.2,2.6-2.1c0.2-0.3,0.3-0.6,0.3-0.8l1.2-5.6h2.3
			L217.5,173.9z"/>
		<path class="st1" d="M224.8,174.2c-0.8,0-1.7-0.1-2.1-0.8l-0.9,4.4h-2.4l3-14.3h2.2l-0.5,2.1c0.9-1.1,2.1-2.4,3.7-2.4
			c2,0,2.7,1.9,2.7,3.6C230.5,170.2,228.5,174.2,224.8,174.2z M226.8,165.4c-1,0-2.2,1.3-2.7,2.1c-0.2,0.3-0.3,0.5-0.4,0.8l-0.6,2.6
			c-0.2,1.1,0.6,1.6,1.6,1.6c2.5,0,3.3-3.2,3.3-5.1C228,166.1,227.6,165.4,226.8,165.4z"/>
		<path class="st1" d="M235.6,174.2c-0.8,0-1.7-0.1-2.1-0.8l-0.9,4.4h-2.4l3-14.3h2.2l-0.5,2.1c0.9-1.1,2.1-2.4,3.7-2.4
			c2,0,2.7,1.9,2.7,3.6C241.3,170.2,239.4,174.2,235.6,174.2z M237.6,165.4c-1,0-2.2,1.3-2.7,2.1c-0.2,0.3-0.3,0.5-0.4,0.8l-0.6,2.6
			c-0.2,1.1,0.6,1.6,1.6,1.6c2.5,0,3.3-3.2,3.3-5.1C238.9,166.1,238.5,165.4,237.6,165.4z"/>
		<path class="st1" d="M246.1,169.4c-0.5,0-1-0.1-1.4-0.1c0,0.2,0,0.4,0,0.5c0,1.5,0.9,2.4,2.5,2.4c0.9,0,1.8-0.3,2.5-0.8l0.5,1.8
			c-1.1,0.6-2.5,1-3.7,1c-2.5,0-4.3-1.6-4.3-4.1c0-3.4,2.1-6.9,5.8-6.9c1.6,0,3.2,0.8,3.2,2.6C251.3,168.7,248.5,169.4,246.1,169.4z
			 M247.6,165c-1.5,0-2.4,1.3-2.7,2.8c0.4,0.1,0.8,0.1,1.2,0.1c1.1,0,2.7-0.3,2.7-1.7C248.9,165.4,248.3,165,247.6,165z"/>
	</g>
</g>
</svg>
